<svg width="1294" height="244" viewBox="0 0 1294 244" xmlns="http://www.w3.org/2000/svg"><title>pingboard-logo-color</title><g fill="none" fill-rule="evenodd"><path d="M24.239 106.06L100 125l100 25V74.985c0-14.684-9.993-27.483-24.239-31.045L0 0v75.015c0 14.684 9.993 27.483 24.239 31.045" fill="#FFB715"/><path d="M100 175L0 200v-37.507a16.001 16.001 0 0 1 12.12-15.523L100 125v50z" fill="#0C7FE4"/><path d="M187.88 203.03L100 225v-50l100-25v37.508a16 16 0 0 1-12.12 15.522" fill="#00AEE6"/><path d="M344.055 65.689v58.01h34.851c20.345 0 30.301-13.199 30.301-29.653 0-16.665-9.956-28.357-30.301-28.357h-34.85zm-24.462-20.35h60.39c34.635 0 53.898 19.917 53.898 48.49 0 28.57-19.263 50.002-53.897 50.002h-35.929v50.434h-24.462V45.34zm135.404 148.924V88.633h23.38v105.63h-23.38zm27.47-146.536c0 8.716-7.065 15.782-15.781 15.782-8.716 0-15.782-7.066-15.782-15.782 0-8.72 7.066-15.782 15.782-15.782 8.716 0 15.782 7.062 15.782 15.782zm18.702 40.908h22.51v15.367h.87c6.055-11.904 17.314-17.964 32.681-17.964 20.995 0 39.613 11.254 39.613 44.157v64.07h-23.38v-61.04c0-20.998-8.874-28.14-22.51-28.14-14.934 0-26.405 12.769-26.405 33.984v55.196h-23.38V88.635zm166.91 89.394c16.666 0 29.008-13.42 29.008-36.578v-1.732c-.65-22.08-12.774-34.855-29.007-34.855-16.45 0-28.79 14.29-28.79 37.448 0 23.163 12.34 35.717 28.79 35.717zm-28.14 29.219c.216 11.692 11.254 18.834 26.626 18.834 18.83 0 31.6-9.523 31.6-37.232v-10.384h-.866c-6.489 12.77-19.48 18.397-35.063 18.397-26.626 0-47.188-19.484-47.188-54.55 0-35.064 21.86-56.274 48.92-56.274 15.15 0 26.842 5.627 33.33 18.397h.867v-15.8h22.297V188.85c0 39.83-22.947 54.768-53.897 54.768-28.141 0-48.27-12.125-48.703-36.37h22.077zm160.2-29.22c16.67 0 28.79-14.284 28.79-37.447 0-23.155-12.12-35.717-28.79-35.717-16.017 0-28.359 12.774-29.003 34.855v1.732c0 23.159 12.553 36.578 29.002 36.578zM747.755 35.822h23.38v33.12c0 7.142 0 21.638-.87 35.495h.87c6.493-12.77 19.479-18.397 35.062-18.397 26.626 0 47.188 19.479 47.188 54.542 0 35.071-21.86 56.282-48.92 56.282-15.15 0-26.837-5.627-33.33-18.397h-.87v15.8h-22.51V35.82zm177.912 142.208c17.753 0 29.657-14.502 29.657-36.578 0-22.947-11.904-36.587-29.657-36.587-17.752 0-29.656 14.506-29.656 36.587 0 22.076 11.904 36.578 29.656 36.578m0-91.99c32.903 0 53.898 20.994 53.898 55.412 0 34.201-22.514 55.412-53.898 55.412-32.686 0-53.897-20.994-53.897-55.412 0-34.202 22.726-55.412 53.897-55.412m141.764 55.195c-2.165 2.597-5.844 4.112-10.822 4.978l-18.185 3.03c-12.333 1.948-17.099 7.359-17.099 15.583 0 8.658 6.065 14.501 17.969 14.501 14.934 0 28.137-9.306 28.137-28.353v-9.74zm-34.197-6.282l20.561-3.458c10.389-1.736 13.636-3.035 13.636-7.143 0-12.774-6.277-20.782-20.778-20.782-14.073 0-21.432 7.575-22.298 18.614h-22.293c1.299-21.86 18.18-36.145 44.59-36.145 29.652 0 44.158 14.068 44.158 38.746v69.48h-22.297v-13.206h-1.082c-6.277 10.177-18.398 15.804-33.764 15.804-23.164 0-35.717-11.908-35.717-29.656 0-17.748 10.389-28.137 35.284-32.254zm152.103-41.817c-4.005 5.226-7.31 11.147-9.84 17.64-4.4-2.093-8.287-3.09-12.151-3.09-15.8 0-23.375 15.368-23.375 33.765v52.815h-23.38V88.635h22.514v15.367h.65c5.194-11.255 14.5-17.964 27.92-17.964 10.023 0 15.412 4.554 17.662 7.097zm55.493 84.894c16.666 0 29.007-13.42 29.007-36.578 0-23.163-12.341-36.587-29.007-36.587-16.449 0-28.79 14.29-28.79 37.448 0 23.163 12.341 35.717 28.79 35.717m-4.112-91.99c15.15 0 26.843 5.627 33.331 18.397h.866c-1.078-13.857-1.078-28.353-1.078-35.496V35.82h23.375v158.446h-22.297v-15.8h-.866c-6.488 12.77-19.479 18.397-35.062 18.397-26.627 0-47.188-19.484-47.188-54.55 0-35.064 21.86-56.274 48.92-56.274" fill="#3B4859"/></g></svg>