<?xml version="1.0" encoding="utf-8"?>
<!-- Generator: Adobe Illustrator 21.1.0, SVG Export Plug-In . SVG Version: 6.00 Build 0)  -->
<svg version="1.1" id="Layer_1" xmlns="http://www.w3.org/2000/svg" xmlns:xlink="http://www.w3.org/1999/xlink" x="0px" y="0px"
	 viewBox="0 0 840 412" style="enable-background:new 0 0 840 412;" xml:space="preserve">
<style type="text/css">
	.st0{clip-path:url(#SVGID_2_);}
	.st1{clip-path:url(#SVGID_4_);fill:none;stroke:#3C434C;stroke-width:22;stroke-miterlimit:10;}
	.st2{clip-path:url(#SVGID_6_);}
	.st3{clip-path:url(#SVGID_8_);fill:#3C434C;}
	.st4{clip-path:url(#SVGID_10_);}
	.st5{clip-path:url(#SVGID_12_);fill:#3C434C;}
	.st6{clip-path:url(#SVGID_14_);}
	.st7{fill:#3C434C;}
</style>
<g>
	<defs>
		<path id="SVGID_1_" d="M122.9,267.7c-4-12,3.7-37.1,6-47.2c-2,9.8-5.8,35.6,0,71.4c7.4,46.3-7.5,60.6-12.4,58.8
			c-6.8-2.6-2.2-16-2.2-16c-3.1-5.4-27.2,11.7-11.1,28.1c14.2,14.9,50.1,5.3,46-69.1c-2.6-24.8,6.1-47.7,13.4-61.9
			c7,14.3,14.9,38.2,12.5,61.9c-4.1,74.4,33.4,84,47.6,69.1c16.2-16.4-9-33.5-12.1-28.1c0,2,4.1,13.4-2.7,16
			c-4.9,1.9-19.9-14.5-12.4-60.7c5.4-33.7,2.4-58.5,0.6-69.5c2.1,10.1,9.1,35.3,5.1,47.2c-7.4,29.5,17.3,67,30.5,62.4
			c14.5-5.1,9.2-28.3,2.5-32.8c-4.5-3,0.8,21.3-4.5,20.6c-3.8-0.5-16.5-38.4-9.5-50.1c5.8-9.5,4.5-25.8,2.6-37.1
			c0.8,1.7,1.7,3.5,3,5.6c8.3,13.7,8,32.3,11.2,31.2c3.2-1.1,4.8-20.3,0-31.2c-2.5-5.5-4.2-11.7-5.3-16.5
			c6.4-12.7,85.4-174.5-68.3-174.5c-146.3,0-81.7,146.5-69.6,171.6c-1,4.9-2.9,12.6-5.9,19.3c-4.8,10.8-3.2,30,0,31.2
			c3.2,1.1,2.9-17.5,11.2-31.2c1.2-2,2.2-3.9,3-5.6c-1.9,11.3-3.2,27.7,2.6,37.1c6.9,11.7-5.8,49.6-9.5,50.1
			c-5.3,0.7,0-23.6-4.5-20.6c-6.7,4.5-12,27.8,2.5,32.8C106.3,334.7,130.4,297.3,122.9,267.7z M48,24.2h230.5v365.5H48V24.2z"/>
	</defs>
	<clipPath id="SVGID_2_">
		<use xlink:href="#SVGID_1_"  style="overflow:visible;"/>
	</clipPath>
	<g class="st0">
		<defs>
			<rect id="SVGID_3_" width="840" height="412"/>
		</defs>
		<clipPath id="SVGID_4_">
			<use xlink:href="#SVGID_3_"  style="overflow:visible;"/>
		</clipPath>
		<path class="st1" d="M122.9,267.7c-4-12,3.7-37.1,6-47.2c-2,9.8-5.8,35.6,0,71.4c7.4,46.3-7.5,60.6-12.4,58.8
			c-6.8-2.6-2.2-16-2.2-16c-3.1-5.4-27.2,11.7-11.1,28.1c14.2,14.9,50.1,5.3,46-69.1c-2.6-24.8,6.1-47.7,13.4-61.9
			c7,14.3,14.9,38.2,12.5,61.9c-4.1,74.4,33.4,84,47.6,69.1c16.2-16.4-9-33.5-12.1-28.1c0,2,4.1,13.4-2.7,16
			c-4.9,1.9-19.9-14.5-12.4-60.7c5.4-33.7,2.4-58.5,0.6-69.5c2.1,10.1,9.1,35.3,5.1,47.2c-7.4,29.5,17.3,67,30.5,62.4
			c14.5-5.1,9.2-28.3,2.5-32.8c-4.5-3,0.8,21.3-4.5,20.6c-3.8-0.5-16.5-38.4-9.5-50.1c5.8-9.5,4.5-25.8,2.6-37.1
			c0.8,1.7,1.7,3.5,3,5.6c8.3,13.7,8,32.3,11.2,31.2c3.2-1.1,4.8-20.3,0-31.2c-2.5-5.5-4.2-11.7-5.3-16.5
			c6.4-12.7,85.4-174.5-68.3-174.5c-146.3,0-81.7,146.5-69.6,171.6c-1,4.9-2.9,12.6-5.9,19.3c-4.8,10.8-3.2,30,0,31.2
			c3.2,1.1,2.9-17.5,11.2-31.2c1.2-2,2.2-3.9,3-5.6c-1.9,11.3-3.2,27.7,2.6,37.1c6.9,11.7-5.8,49.6-9.5,50.1
			c-5.3,0.7,0-23.6-4.5-20.6c-6.7,4.5-12,27.8,2.5,32.8C106.3,334.7,130.4,297.3,122.9,267.7z"/>
	</g>
</g>
<g>
	<defs>
		<ellipse id="SVGID_5_" cx="112.7" cy="189.5" rx="14.5" ry="14.4"/>
	</defs>
	<clipPath id="SVGID_6_">
		<use xlink:href="#SVGID_5_"  style="overflow:visible;"/>
	</clipPath>
	<g class="st2">
		<defs>
			<rect id="SVGID_7_" width="840" height="412"/>
		</defs>
		<clipPath id="SVGID_8_">
			<use xlink:href="#SVGID_7_"  style="overflow:visible;"/>
		</clipPath>
		<rect x="93.1" y="170.1" class="st3" width="39.1" height="38.7"/>
	</g>
</g>
<g>
	<defs>
		<ellipse id="SVGID_9_" cx="212.6" cy="189.5" rx="14.5" ry="14.4"/>
	</defs>
	<clipPath id="SVGID_10_">
		<use xlink:href="#SVGID_9_"  style="overflow:visible;"/>
	</clipPath>
	<g class="st4">
		<defs>
			<rect id="SVGID_11_" width="840" height="412"/>
		</defs>
		<clipPath id="SVGID_12_">
			<use xlink:href="#SVGID_11_"  style="overflow:visible;"/>
		</clipPath>
		<rect x="193" y="170.1" class="st5" width="39.1" height="38.7"/>
	</g>
</g>
<g>
	<defs>
		<rect id="SVGID_13_" width="840" height="412"/>
	</defs>
	<clipPath id="SVGID_14_">
		<use xlink:href="#SVGID_13_"  style="overflow:visible;"/>
	</clipPath>
	<g class="st6">
		<path class="st7" d="M383,326.2c0,26.8-25,37.6-49.9,37.7c-18.3,0.2-38.5-8-51.4-22l13.7-13.7c8,10,22.9,18.7,37.7,18.7
			c16.1-0.2,29.4-5.7,29.4-19.4c0-12-12.8-17-34.6-26.3c-17.9-7.6-39.4-16.7-39.4-40.1c0-18.5,17.6-37.7,46.4-37.7
			c20.3,0,36.6,8.1,49.6,22.4l-13.7,13.1c-8.9-9.6-22.2-18.5-38.3-18.5c-12.6,0-23.5,7-23.5,18.9c0,16.6,19.2,22.8,33.7,28.5
			C361.9,295.3,383,305.1,383,326.2z"/>
		<path class="st7" d="M463.7,363v-51.6c0-18.5-7.4-26.8-23.1-26.8c-15.7,0-23.1,8.3-23.1,26.8V363h-19.1V218.7h19.1v64.9
			c6.3-8.1,15.9-14.6,32.4-14.6c19.2,0,32.7,10.4,32.7,36.6l0.2,57.3H463.7z"/>
		<path class="st7" d="M577.1,305.9V363H558v-10c-6.7,9.1-18.5,10.9-27.8,10.9c-17.2,0-30.9-9.6-30.9-27.7c0-20.9,17-30.9,42-30.9
			H558c0-11.1-3.9-20.7-15.9-20.7c-8.7,0-14.6,3-22.4,9.4l-12-9.1c9.6-10,22.9-15.9,36.1-15.9C565.6,269.1,577.1,280.5,577.1,305.9z
			 M558,322.3H544c-19.1,0-25.5,4.4-25.5,12.9c0,9.2,7.8,13.1,16.3,13.1c17.9,0,23.3-7.6,23.3-17.6V322.3z"/>
		<path class="st7" d="M612.8,350.3v47h-19.1V270h19.1v12.6c5.4-6.8,16.6-13.5,29.6-13.5c25.9,0,44.2,17.4,44.2,47.4
			c0,28.1-18.3,47.5-44.2,47.5C629.5,364,618.2,357.1,612.8,350.3z M612.8,316.4c0,18.7,9.8,31.8,27.4,31.8
			c17.6,0,27.4-13.1,27.4-31.8c0-18.5-9.8-31.8-27.4-31.8C622.6,284.6,612.8,297.9,612.8,316.4z"/>
		<path class="st7" d="M718.3,324.2c0,15,13.5,24.2,27.2,24.2c10.5,0,19.4-4.3,27.2-11.7l11.3,10.5c-8,8.3-20,16.6-38.5,16.6
			c-28.1,0-45.9-19.2-45.9-46.4c0-27.2,19.4-48.5,45.9-48.5c26.5,0,44,20.2,44,46.6v8.5H718.3z M745.4,284.6
			c-14.1,0-26.8,10.5-26.8,24h51.8C770.4,293.8,759.5,284.6,745.4,284.6z"/>
	</g>
	<g class="st6">
		<path class="st7" d="M383.2,165.9c0,26.8-25,37.6-49.9,37.7c-18.3,0.2-38.5-8-51.4-22l13.7-13.7c8,10,22.9,18.7,37.7,18.7
			c16.1-0.2,29.4-5.7,29.4-19.4c0-12-12.8-17-34.6-26.3c-17.9-7.6-39.4-16.7-39.4-40.1c0-18.5,17.6-37.7,46.4-37.7
			c20.3,0,36.6,8.1,49.6,22.4L371,98.6c-8.9-9.6-22.2-18.5-38.3-18.5c-12.6,0-23.5,7-23.5,18.9c0,16.6,19.2,22.8,33.7,28.5
			C362.1,135,383.2,144.8,383.2,165.9z"/>
		<path class="st7" d="M463.9,202.7v-51.6c0-18.5-7.4-26.8-23.1-26.8s-23.1,8.3-23.1,26.8v51.6h-19.1V58.4h19.1v64.9
			c6.3-8.1,15.9-14.6,32.4-14.6c19.2,0,32.7,10.4,32.7,36.6l0.2,57.3H463.9z"/>
		<path class="st7" d="M509.9,86.7c-5.7,0-10.4-4.6-10.4-10.5c0-5.7,4.6-10.5,10.4-10.5c5.9,0,10.4,4.8,10.4,10.5
			C520.3,82.1,515.8,86.7,509.9,86.7z M500.5,202.7v-93.1h19.1v93.1H500.5z"/>
		<path class="st7" d="M556,189.9v47h-19.1V109.7H556v12.6c5.4-6.8,16.6-13.5,29.6-13.5c25.9,0,44.2,17.4,44.2,47.4
			c0,28.1-18.3,47.5-44.2,47.5C572.6,203.6,561.4,196.8,556,189.9z M556,156.1c0,18.7,9.8,31.8,27.4,31.8
			c17.6,0,27.4-13.1,27.4-31.8c0-18.5-9.8-31.8-27.4-31.8C565.8,124.3,556,137.6,556,156.1z"/>
	</g>
</g>
</svg>
